<svg width="283" height="286" viewBox="0 0 283 286" fill="none" xmlns="http://www.w3.org/2000/svg">
<ellipse cx="141.143" cy="143" rx="141.143" ry="143" fill="#D9D9D9"/>
<path d="M183.2 224.575C207.949 207.988 224.521 177.663 224.521 143C224.521 90.5353 186.575 48 139.763 48C92.946 48 55 90.5353 55 143C55 195.465 92.946 238 139.763 238H246V224.575L183.2 224.575ZM173.809 96.9569C182.594 91.2732 193.82 94.6444 198.891 104.489C203.962 114.334 200.954 126.923 192.17 132.606C183.386 138.283 172.159 134.913 167.089 125.074C162.012 115.223 165.026 102.641 173.809 96.9569ZM167.083 160.43C172.16 150.585 183.386 147.214 192.17 152.897C200.955 158.587 203.962 171.169 198.891 181.014C193.82 190.859 182.594 194.23 173.804 188.547C165.026 182.863 162.012 170.274 167.083 160.43ZM139.763 66.2266C149.906 66.2266 158.124 75.4377 158.124 86.805C158.124 98.1723 149.906 107.396 139.763 107.396C129.621 107.396 121.391 98.1719 121.391 86.805C121.391 75.4382 129.621 66.2266 139.763 66.2266ZM148.239 143C148.239 148.253 144.444 152.499 139.763 152.499C135.077 152.499 131.288 148.253 131.288 143C131.288 137.747 135.077 133.501 139.763 133.501C144.444 133.501 148.239 137.748 148.239 143ZM80.6294 104.489C85.7006 94.6444 96.9327 91.2736 105.717 96.9569C114.501 102.64 117.508 115.223 112.438 125.074C107.366 134.912 96.1344 138.29 87.3503 132.606C78.5721 126.923 75.5582 114.334 80.6294 104.489ZM105.723 188.547C96.9327 194.23 85.7066 190.859 80.6294 181.014C75.5642 171.169 78.5717 158.581 87.3503 152.891C96.1344 147.207 107.366 150.584 112.438 160.429C117.509 170.274 114.501 182.863 105.723 188.547ZM121.391 198.692C121.391 187.325 129.621 178.107 139.763 178.107C149.905 178.107 158.124 187.325 158.124 198.692C158.124 210.059 149.906 219.277 139.763 219.277C129.621 219.277 121.391 210.059 121.391 198.692Z" fill="black"/>
</svg>
