<svg width="309" height="250" viewBox="0 0 309 250" fill="none" xmlns="http://www.w3.org/2000/svg">
<path d="M108.9 173.874C125.098 163.835 135.943 145.48 135.943 124.5C135.943 92.745 111.109 67 80.4734 67C49.8337 67 25 92.745 25 124.5C25 156.255 49.8337 182 80.4734 182H150V173.875L108.9 173.874ZM102.755 96.6318C108.504 93.1917 115.851 95.2321 119.169 101.191C122.488 107.15 120.52 114.769 114.771 118.209C109.022 121.645 101.675 119.605 98.3564 113.65C95.0339 107.687 97.0063 100.072 102.755 96.6318ZM98.3528 135.05C101.675 129.091 109.022 127.051 114.771 130.49C120.52 133.934 122.488 141.55 119.17 147.509C115.851 153.468 108.504 155.508 102.751 152.068C97.0063 148.628 95.0339 141.008 98.3528 135.05ZM80.4734 78.0319C87.1111 78.0319 92.4897 83.6071 92.4897 90.4872C92.4897 97.3674 87.1111 102.95 80.4734 102.95C73.8357 102.95 68.4495 97.3672 68.4495 90.4872C68.4495 83.6073 73.8357 78.0319 80.4734 78.0319ZM86.02 124.5C86.02 127.679 83.5366 130.249 80.4734 130.249C77.4062 130.249 74.9268 127.679 74.9268 124.5C74.9268 121.321 77.4062 118.751 80.4734 118.751C83.5366 118.751 86.02 121.321 86.02 124.5ZM41.7732 101.191C45.092 95.2321 52.4429 93.1919 58.1917 96.6318C63.9404 100.072 65.9087 107.687 62.5901 113.65C59.2712 119.605 51.9204 121.649 46.1716 118.209C40.4268 114.769 38.4543 107.15 41.7732 101.191ZM58.1956 152.068C52.4429 155.508 45.0959 153.468 41.7732 147.509C38.4583 141.55 40.4265 133.931 46.1716 130.486C51.9204 127.046 59.2712 129.091 62.5901 135.049C65.9089 141.008 63.9404 148.628 58.1956 152.068ZM68.4495 158.208C68.4495 151.328 73.8359 145.749 80.4734 145.749C87.1108 145.749 92.4897 151.328 92.4897 158.208C92.4897 165.088 87.1111 170.667 80.4734 170.667C73.8357 170.667 68.4495 165.089 68.4495 158.208Z" fill="black"/>
<path d="M220.756 205.348C203.788 225.57 180.854 239.901 155.24 246.287C129.627 252.673 102.649 250.787 78.1742 240.898C53.6989 231.009 32.9825 213.626 18.994 191.24C5.00549 168.854 -1.5369 142.614 0.304494 116.28C2.14588 89.9473 12.2765 64.8731 29.2444 44.6515C46.2124 24.43 69.1465 10.0991 94.7598 3.71303C120.373 -2.67308 147.351 -0.786625 171.826 9.10202C196.301 18.9907 217.018 36.3738 231.006 58.7601L225.585 62.1473C212.312 40.9057 192.655 24.4114 169.431 15.0285C146.208 5.64548 120.61 3.85549 96.3061 9.91504C72.0025 15.9746 50.2412 29.5726 34.1409 48.7602C18.0406 67.9477 8.42803 91.7398 6.6808 116.726C4.93357 141.713 11.1414 166.611 24.4146 187.853C37.6878 209.094 57.3449 225.589 80.5686 234.972C103.792 244.355 129.39 246.145 153.694 240.085C177.997 234.025 199.759 220.427 215.859 201.24L220.756 205.348Z" fill="black"/>
<path d="M146.649 116V90.8H158.169C160.473 90.8 162.453 91.172 164.109 91.916C165.789 92.66 167.085 93.74 167.997 95.156C168.909 96.548 169.365 98.204 169.365 100.124C169.365 102.02 168.909 103.664 167.997 105.056C167.085 106.424 165.789 107.48 164.109 108.224C162.453 108.944 160.473 109.304 158.169 109.304H150.609L153.777 106.316V116H146.649ZM162.237 116L155.973 106.82H163.569L169.869 116H162.237ZM153.777 107.072L150.609 103.796H157.737C159.225 103.796 160.329 103.472 161.049 102.824C161.793 102.176 162.165 101.276 162.165 100.124C162.165 98.948 161.793 98.036 161.049 97.388C160.329 96.74 159.225 96.416 157.737 96.416H150.609L153.777 93.14V107.072ZM179.849 100.556H191.549V105.884H179.849V100.556ZM180.353 110.492H193.529V116H173.297V90.8H193.061V96.308H180.353V110.492ZM197.485 116V90.8H203.353L213.793 107.936H210.697L220.849 90.8H226.717L226.789 116H220.237L220.165 100.772H221.281L213.685 113.516H210.517L202.705 100.772H204.073V116H197.485ZM228.808 116L239.933 90.8H246.953L258.113 116H250.697L241.985 94.292H244.793L236.081 116H228.808ZM234.893 111.104L236.729 105.848H249.041L250.877 111.104H234.893ZM266.505 110.42L266.109 102.428L276.945 90.8H284.793L273.993 102.5L270.033 106.64L266.505 110.42ZM260.133 116V90.8H267.189V116H260.133ZM277.053 116L268.845 105.596L273.489 100.628L285.333 116H277.053ZM293.756 100.556H305.456V105.884H293.756V100.556ZM294.26 110.492H307.436V116H287.204V90.8H306.968V96.308H294.26V110.492ZM164.821 160.504C162.757 160.504 160.765 160.252 158.845 159.748C156.949 159.22 155.401 158.548 154.201 157.732L156.541 152.476C157.669 153.196 158.965 153.796 160.429 154.276C161.917 154.732 163.393 154.96 164.857 154.96C165.841 154.96 166.633 154.876 167.233 154.708C167.833 154.516 168.265 154.276 168.529 153.988C168.817 153.676 168.961 153.316 168.961 152.908C168.961 152.332 168.697 151.876 168.169 151.54C167.641 151.204 166.957 150.928 166.117 150.712C165.277 150.496 164.341 150.28 163.309 150.064C162.301 149.848 161.281 149.572 160.249 149.236C159.241 148.9 158.317 148.468 157.477 147.94C156.637 147.388 155.953 146.68 155.425 145.816C154.897 144.928 154.633 143.812 154.633 142.468C154.633 140.956 155.041 139.588 155.857 138.364C156.697 137.14 157.945 136.156 159.601 135.412C161.257 134.668 163.321 134.296 165.793 134.296C167.449 134.296 169.069 134.488 170.653 134.872C172.261 135.232 173.689 135.772 174.937 136.492L172.741 141.784C171.541 141.136 170.353 140.656 169.177 140.344C168.001 140.008 166.861 139.84 165.757 139.84C164.773 139.84 163.981 139.948 163.381 140.164C162.781 140.356 162.349 140.62 162.085 140.956C161.821 141.292 161.689 141.676 161.689 142.108C161.689 142.66 161.941 143.104 162.445 143.44C162.973 143.752 163.657 144.016 164.497 144.232C165.361 144.424 166.297 144.628 167.305 144.844C168.337 145.06 169.357 145.336 170.365 145.672C171.397 145.984 172.333 146.416 173.173 146.968C174.013 147.496 174.685 148.204 175.189 149.092C175.717 149.956 175.981 151.048 175.981 152.368C175.981 153.832 175.561 155.188 174.721 156.436C173.905 157.66 172.669 158.644 171.013 159.388C169.381 160.132 167.317 160.504 164.821 160.504ZM184.286 160V140.452H176.546V134.8H199.118V140.452H191.414V160H184.286ZM213.015 160.504C209.295 160.504 206.391 159.484 204.303 157.444C202.215 155.404 201.171 152.512 201.171 148.768V134.8H208.299V148.552C208.299 150.712 208.719 152.26 209.559 153.196C210.423 154.132 211.599 154.6 213.087 154.6C214.575 154.6 215.739 154.132 216.579 153.196C217.419 152.26 217.839 150.712 217.839 148.552V134.8H224.859V148.768C224.859 152.512 223.815 155.404 221.727 157.444C219.639 159.484 216.735 160.504 213.015 160.504ZM229.688 160V134.8H241.604C244.388 134.8 246.836 135.316 248.948 136.348C251.06 137.38 252.704 138.832 253.88 140.704C255.08 142.576 255.68 144.808 255.68 147.4C255.68 149.968 255.08 152.2 253.88 154.096C252.704 155.968 251.06 157.42 248.948 158.452C246.836 159.484 244.388 160 241.604 160H229.688ZM236.816 154.312H241.316C242.756 154.312 244.004 154.048 245.06 153.52C246.14 152.968 246.98 152.176 247.58 151.144C248.18 150.088 248.48 148.84 248.48 147.4C248.48 145.936 248.18 144.688 247.58 143.656C246.98 142.624 246.14 141.844 245.06 141.316C244.004 140.764 242.756 140.488 241.316 140.488H236.816V154.312ZM259.43 160V134.8H266.558V160H259.43ZM284.337 160.504C282.321 160.504 280.461 160.18 278.757 159.532C277.053 158.884 275.565 157.972 274.293 156.796C273.045 155.596 272.073 154.204 271.377 152.62C270.681 151.036 270.333 149.296 270.333 147.4C270.333 145.504 270.681 143.764 271.377 142.18C272.073 140.596 273.045 139.216 274.293 138.04C275.565 136.84 277.053 135.916 278.757 135.268C280.461 134.62 282.321 134.296 284.337 134.296C286.377 134.296 288.237 134.62 289.917 135.268C291.621 135.916 293.097 136.84 294.345 138.04C295.593 139.216 296.565 140.596 297.261 142.18C297.981 143.764 298.341 145.504 298.341 147.4C298.341 149.296 297.981 151.048 297.261 152.656C296.565 154.24 295.593 155.62 294.345 156.796C293.097 157.972 291.621 158.884 289.917 159.532C288.237 160.18 286.377 160.504 284.337 160.504ZM284.337 154.6C285.297 154.6 286.185 154.432 287.001 154.096C287.841 153.76 288.561 153.28 289.161 152.656C289.785 152.008 290.265 151.24 290.601 150.352C290.961 149.464 291.141 148.48 291.141 147.4C291.141 146.296 290.961 145.312 290.601 144.448C290.265 143.56 289.785 142.804 289.161 142.18C288.561 141.532 287.841 141.04 287.001 140.704C286.185 140.368 285.297 140.2 284.337 140.2C283.377 140.2 282.477 140.368 281.637 140.704C280.821 141.04 280.101 141.532 279.477 142.18C278.877 142.804 278.397 143.56 278.037 144.448C277.701 145.312 277.533 146.296 277.533 147.4C277.533 148.48 277.701 149.464 278.037 150.352C278.397 151.24 278.877 152.008 279.477 152.656C280.101 153.28 280.821 153.76 281.637 154.096C282.477 154.432 283.377 154.6 284.337 154.6Z" fill="black"/>
</svg>
