<svg width="250" height="250" viewBox="0 0 250 250" fill="none" xmlns="http://www.w3.org/2000/svg">
<path d="M152.036 181.896C172.121 169.412 185.569 146.588 185.569 120.5C185.569 81.0134 154.775 49 116.787 49C78.7938 49 48 81.0134 48 120.5C48 159.987 78.7938 192 116.787 192H203V181.896L152.036 181.896ZM144.416 85.8465C151.545 81.5688 160.655 84.106 164.77 91.5157C168.885 98.9253 166.445 108.4 159.316 112.678C152.188 116.95 143.077 114.413 138.962 107.008C134.842 99.594 137.288 90.1242 144.416 85.8465ZM138.957 133.618C143.077 126.209 152.188 123.672 159.316 127.949C166.445 132.231 168.885 141.701 164.77 149.111C160.655 156.52 151.545 159.057 144.412 154.78C137.288 150.502 134.842 141.027 138.957 133.618ZM116.787 62.7179C125.018 62.7179 131.687 69.6505 131.687 78.2059C131.687 86.7612 125.018 93.7036 116.787 93.7036C108.556 93.7036 101.877 86.7609 101.877 78.2059C101.877 69.6508 108.556 62.7179 116.787 62.7179ZM123.665 120.5C123.665 124.453 120.585 127.649 116.787 127.649C112.984 127.649 109.909 124.453 109.909 120.5C109.909 116.547 112.984 113.351 116.787 113.351C120.585 113.351 123.665 116.547 123.665 120.5ZM68.7988 91.5157C72.9141 84.106 82.0292 81.5691 89.1576 85.8465C96.2861 90.1239 98.7268 99.594 94.6117 107.008C90.4963 114.413 81.3813 116.955 74.2528 112.678C67.1292 108.4 64.6834 98.9253 68.7988 91.5157ZM89.1625 154.78C82.0292 159.058 72.919 156.52 68.7988 149.111C64.6882 141.701 67.1289 132.227 74.2528 127.944C81.3813 123.666 90.4963 126.208 94.6117 133.618C98.7271 141.027 96.2861 150.502 89.1625 154.78ZM101.877 162.416C101.877 153.86 108.557 146.923 116.787 146.923C125.017 146.923 131.687 153.861 131.687 162.416C131.687 170.971 125.018 177.908 116.787 177.908C108.556 177.908 101.877 170.971 101.877 162.416Z" fill="black"/>
<path d="M220.756 205.348C203.788 225.57 180.854 239.901 155.24 246.287C129.627 252.673 102.649 250.787 78.1742 240.898C53.6989 231.009 32.9825 213.626 18.994 191.24C5.00549 168.854 -1.5369 142.614 0.304494 116.28C2.14588 89.9473 12.2765 64.8731 29.2444 44.6515C46.2124 24.43 69.1465 10.0991 94.7598 3.71303C120.373 -2.67308 147.351 -0.786625 171.826 9.10202C196.301 18.9907 217.018 36.3738 231.006 58.7601L225.585 62.1473C212.312 40.9057 192.655 24.4114 169.431 15.0285C146.208 5.64548 120.61 3.85549 96.3061 9.91504C72.0025 15.9746 50.2412 29.5726 34.1409 48.7602C18.0406 67.9477 8.42803 91.7398 6.6808 116.726C4.93357 141.713 11.1414 166.611 24.4146 187.853C37.6878 209.094 57.3449 225.589 80.5686 234.972C103.792 244.355 129.39 246.145 153.694 240.085C177.997 234.025 199.759 220.427 215.859 201.24L220.756 205.348Z" fill="black"/>
</svg>
